<?xml version="1.0" encoding="utf-8"?>
<!-- Generator: Adobe Illustrator 20.0.0, SVG Export Plug-In . SVG Version: 6.00 Build 0)  -->
<svg version="1.1" id="Layer_1" xmlns="http://www.w3.org/2000/svg" xmlns:xlink="http://www.w3.org/1999/xlink" x="0px" y="0px"
	 width="135px" height="150px" viewBox="0 0 135 150" style="enable-background:new 0 0 135 150;" xml:space="preserve">
<style type="text/css">
	.st0{fill:#FFFFFF;}
	.st1{clip-path:url(#SVGID_2_);}
	.st2{filter:url(#Adobe_OpacityMaskFilter);}
	.st3{fill:#CF0A2C;}
	.st4{fill-rule:evenodd;clip-rule:evenodd;fill:#FFFFFF;}
	.st5{fill-rule:evenodd;clip-rule:evenodd;fill:#B9B6B5;}
	.st6{fill:#B9B6B5;}
	.st7{fill-rule:evenodd;clip-rule:evenodd;fill:#009944;}
	.st8{fill:#009944;}
	.st9{clip-path:url(#SVGID_6_);}
	.st10{filter:url(#Adobe_OpacityMaskFilter_1_);}
	.st11{clip-path:url(#SVGID_10_);}
	.st12{filter:url(#Adobe_OpacityMaskFilter_2_);}
	.st13{clip-path:url(#SVGID_14_);}
	.st14{filter:url(#Adobe_OpacityMaskFilter_3_);}
	.st15{clip-path:url(#SVGID_18_);}
	.st16{filter:url(#Adobe_OpacityMaskFilter_4_);}
	.st17{clip-path:url(#SVGID_22_);}
	.st18{filter:url(#Adobe_OpacityMaskFilter_5_);}
	.st19{clip-path:url(#SVGID_26_);}
	.st20{filter:url(#Adobe_OpacityMaskFilter_6_);}
	.st21{fill:none;stroke:#000000;stroke-miterlimit:10;}
	.st22{fill-rule:evenodd;clip-rule:evenodd;fill:#E29358;}
	.st23{fill-rule:evenodd;clip-rule:evenodd;fill:#A8AAAD;}
	.st24{fill:#A8AAAD;}
</style>
<g>
	<rect class="st3" width="135" height="150"/>
	<g>
		<path class="st4" d="M31.4,109.8c0-6.2-0.3-11.3-0.3-22.2c0-2-2.6-3.4-1.8-5.3h0.5c13.8-1.4,26.4,2.5,26.4,12.5
			C56.1,104.5,45.6,110.3,31.4,109.8 M37.4,86.6c0,3.1,0.1,14.7,0.1,18.6C52,106.1,54,85.2,37.4,86.6"/>
		<path class="st4" d="M85.9,84.8c0,4.1-1.9,12.8,2.1,13.6c5.6,1.2,4.5-7.5,4.5-12.4c0-0.2,0-0.3,0-0.5c0-0.2,0-0.5,0.5-0.6
			c1.8-0.4,2.8-0.5,4.6-0.7c0.6-0.1,0.7,0.3,0.7,0.5c-0.6,18,0.1,26.6-15,28.5c-0.9,0.1-1.1-0.3-1.2-0.4c-0.6-1-0.9-2.1-1.2-3.3
			c-0.1-0.3,0.3-0.5,0.6-0.5c7-0.6,11-3.5,11.2-8.2c-1.4,1.5-5.3,3.6-8.7,2.4c-5.3-1.8-3.6-12.7-3.4-18.2c0-0.3,0.3-0.6,0.5-0.6
			c1.1-0.4,2.6-0.6,4.3-0.5C85.9,84,85.9,84.6,85.9,84.8"/>
		<path class="st4" d="M77.3,107.2c-1,0.6-2.1,1.1-3.3,1.5c-0.3,0.1-1.2,0.2-1.7-0.3c-0.6-0.8-0.9-1.9-1.1-3
			c-3.7,2.5-12.3,2.7-13.4-2.6c-1.6-7.4,5.3-10.9,12.4-11.3c-0.9-3.1-5.6-2.5-9.2-2.3c-0.2,0-0.5,0-0.5-0.4c0.1-1.2,0.4-2.4,1.1-3.1
			c1-1,2.8-1.2,3.7-1.2c4-0.2,6,0.3,8.1,1.7c5.5,3.6,1.4,13.8,4.2,19.7C78,106.8,77.6,107,77.3,107.2 M64.3,101.8
			c2.5,3,8.8-1.1,6.1-6.2C66.2,95.6,61.8,98.5,64.3,101.8"/>
		<path class="st4" d="M108.6,50.3c-0.1,6.5-0.2,15.6,0.4,22.1c0.2,2.4,0.3,4.5,1.2,6.3c0.6,1.1-0.3,1.5-0.6,1.6
			c-1.1,0.4-2,0.7-2.9,0.9c-0.5,0.1-1.6,0.6-2.3-0.7c-0.3-0.6-0.6-1.2-0.7-2.2c-4.1,4.1-12.4,2.7-13.5-3.3
			c-1.5-8.3,4.7-13.5,13.2-14c0-0.5,0-10.6,0-10.7c1-0.7,2.6-1.5,4.1-1.5C108.8,48.8,108.6,49.9,108.6,50.3 M99.2,75.8
			c4.7,0.2,5-6.1,3.7-10.2C96.1,64.1,93.1,75.6,99.2,75.8"/>
		<path class="st4" d="M39.5,50.5c2,0.5,1.5,1.9,1,2.5c-0.6,0.9-1.5,1.9-1.8,1.9c-5-0.7-9.2-0.9-12.5,1.3
			c-5.2,3.5-5.9,13.6-1.3,16.5c3.3,2.1,9.4,0.8,11.1-2.2c0.1-1.6,0.1-4.4,0.1-4.4c-0.5,0-6.1-0.2-8.4-0.2c0.1-1.7-0.2-4.2,2.6-4.2
			c4.7,0,8.3-0.1,11.7-0.1c1.4,0,2.4,2,1.5,3.1c-1.8,2.2-1.7,5.2-1.7,12.5c0,0.2-1.3,1.7-5.2,2c-0.5-0.1-0.3-1.8-0.4-2.9
			c-3.3,2.7-11.7,3.1-15.9,0.4c-2.8-1.8-4.4-5-4.8-7.7C14.1,57.2,23.6,47.1,39.5,50.5"/>
		<path class="st4" d="M60.5,61.9c1.1,0.2,0.2,1.7-0.3,2.1c11.4,4.3,3.8,22.6-9.5,17.5c-4.3-1.6-6.3-6-5.6-10.7
			C46,64.8,52.3,60.6,60.5,61.9 M55.2,66.4c-6.7,0.8-5.9,13.9,2.1,11.1c2.8-1,4.1-5.9,1.6-8.8c-0.5-0.4-1.1-0.7-2.1-0.7
			c-0.3,0-1,0-0.9-0.6c0.1-0.6,0.2-1.2-0.5-1.1H55.2z"/>
		<path class="st4" d="M83,61.1c1.1,0.2,0.2,1.7-0.3,2.1c11.4,4.3,3.8,22.6-9.5,17.5c-4.3-1.6-6.2-6-5.6-10.7
			C68.5,64,74.8,59.8,83,61.1 M77.6,65.6c-6.7,0.8-5.9,13.9,2.1,11.1c2.8-1,4.1-5.9,1.6-8.8c-0.5-0.4-1.2-0.7-2.1-0.6
			c-0.3,0-1-0.1-0.9-0.6c0.1-0.6,0.2-1.2-0.5-1.1H77.6z"/>
		<path class="st23" d="M50.3,95.6c0-2.5-1-4.9-2.7-6.5c-0.3-0.3-0.6-0.5-0.9-0.8c0.1,0.1,0.3,0.2,0.4,0.4c1.7,1.7,2.7,4,2.7,6.6
			c0.1,7.1-5.3,10.8-12.4,11v0.4C44.8,106.6,50.3,102.2,50.3,95.6"/>
		<path class="st23" d="M32.5,102.2c-0.1-3.8-0.2-8-0.2-14.3c0-1.1-0.6-2-1.2-2.8c-0.5-0.7-0.8-1.2-0.8-1.8c1.8-0.2,3.5-0.3,5.2-0.3
			c7.1,0,13,1.6,16.6,4.3c-3.5-3-9.6-4.7-17.1-4.7c-1.7,0-3.4,0.1-5.2,0.3c0,0.5,0.3,1,0.8,1.8c0.5,0.8,1.2,1.7,1.2,2.8
			c0,6.2,0.1,10.5,0.2,14.3c0.1,2.6,0.1,4.8,0.1,7.2c0.2,0,0.3,0,0.5,0C32.6,106.8,32.6,104.7,32.5,102.2"/>
		<path class="st23" d="M88.4,99.5c0.4,0.1,0.8,0.1,1.1,0.1c1,0,1.9-0.4,2.6-1.1c1.9-2,1.8-6.2,1.7-9.9c0-0.8,0-1.5,0-2.2
			c0-0.1,0-0.2,0-0.4c1.4-0.3,2.2-0.4,3.4-0.6c0.1,0,0.3,0,0.4,0c0-0.2,0-0.3,0-0.5c-0.3,0-0.6,0.1-0.9,0.1c-1.2,0.1-2,0.2-3.4,0.6
			c0,0.1,0,0.2,0,0.4c0,0.7,0,1.4,0,2.2c0.1,3.7,0.2,8-1.7,9.9c-0.7,0.7-1.5,1.1-2.6,1.1c-0.3,0-0.7,0-1.1-0.1
			c-0.4-0.1-0.8-0.3-1.1-0.5C87.2,99.1,87.7,99.4,88.4,99.5"/>
		<path class="st23" d="M83.2,102.1c-2.5-2.5-2.1-9.2-1.8-13.9c0.1-1,0.1-1.9,0.2-2.8c0,0,0,0,0,0l0,0c0.9-0.3,2-0.5,3.2-0.5
			c0.1,0,0.3,0,0.4,0c0-0.1,0-0.2,0-0.3c0-0.1,0-0.1,0-0.1c0,0-0.1,0-0.1,0c-0.3,0-0.5,0-0.8,0c-1.2,0-2.3,0.2-3.2,0.5l0,0
			c0,0,0,0,0,0c0,0.8-0.1,1.8-0.2,2.8C80.6,92.8,80.1,100,83.2,102.1"/>
		<path class="st23" d="M82.2,110.3l0-0.1c7.3-0.7,11.5-3.9,11.6-8.9l0-1.9l-0.5,0.6l0,0.9c-0.1,5-4.3,8.2-11.6,8.9l0,0.1
			c0.3,1,0.5,1.8,1,2.6c0,0,0.1,0,0.2,0c0,0,0.1,0,0.1,0C82.6,111.9,82.4,111.1,82.2,110.3"/>
		<path class="st23" d="M71.5,95.6l-0.2-0.4l-0.3,0c1,1.9,1,3.8,0,5.5c-1,1.6-2.8,2.7-4.5,2.7c-0.8,0-1.4-0.2-2-0.6
			c0.7,0.7,1.6,1,2.5,1c1.7,0,3.5-1.1,4.5-2.7C72.5,99.4,72.5,97.4,71.5,95.6"/>
		<path class="st23" d="M62.5,86.4c0.6-0.6,1.7-1,3.2-1c0.6,0,1.1-0.1,1.6-0.1c3,0,4.5,0.6,6.1,1.7c0,0,0.1,0.1,0.1,0.1
			c-0.2-0.2-0.4-0.3-0.6-0.5c-1.6-1-3.1-1.7-6.1-1.7c-0.5,0-1,0-1.6,0c-1.5,0.1-2.6,0.5-3.2,1c-0.5,0.5-0.8,1.3-0.9,2.3
			c0.2,0,0.4,0,0.6,0C61.9,87.5,62.1,86.8,62.5,86.4"/>
		<path class="st23" d="M58.9,103c-0.5-2.3-0.1-4.3,1.1-6c1.9-2.5,5.9-4.2,10.6-4.5l0.9-0.1l-0.3-0.9c-0.3-0.9-0.8-1.5-1.4-2
			c0.4,0.4,0.7,0.9,0.9,1.6l0.3,0.9l-0.9,0.1c-4.8,0.3-8.7,2-10.6,4.5c-1.2,1.7-1.6,3.7-1.1,6c0.2,1.1,0.9,1.9,1.6,2.4
			C59.5,104.5,59.1,103.8,58.9,103"/>
		<path class="st23" d="M72.4,105.6l-0.2-1.1l-0.4,0.3l0.1,0.4c0.2,1,0.4,2.1,1,2.7c0,0.1,0.2,0.1,0.3,0.1
			C72.8,107.3,72.5,106.4,72.4,105.6"/>
		<path class="st23" d="M105.5,80.6c-0.3-0.5-0.5-1-0.6-1.9l-0.1-1.6l-0.4,0.4l0.1,0.7c0.1,0.9,0.3,1.4,0.6,1.9
			C105.2,80.6,105.4,80.7,105.5,80.6C105.5,80.6,105.5,80.6,105.5,80.6"/>
		<path class="st23" d="M91.4,75.3c-0.6-3.2,0-6.1,1.8-8.3c2.2-2.8,6-4.5,10.8-4.8l0.7,0l0-0.7c0-0.2,0-1.6,0-3.3c0-2.5,0-6,0-7.1
			c0.9-0.6,2.1-1.1,3.3-1.2c0-0.1,0-0.3-0.1-0.4c0,0-0.1-0.1-0.3-0.1h0c-1.2,0-2.5,0.6-3.4,1.2c0,1.1,0,4.6,0,7.1c0,1.7,0,3.1,0,3.3
			l0,0.7l-0.7,0c-4.8,0.3-8.6,2-10.8,4.8c-1.8,2.2-2.4,5.1-1.8,8.3c0.3,1.6,1.2,2.8,2.3,3.6C92.3,77.7,91.6,76.7,91.4,75.3"/>
		<path class="st23" d="M104,65.7l-0.1-0.4l-0.4-0.1l0,0l0,0.1c0.9,3,1.1,7-0.6,9.4c-0.8,1.2-2.1,1.8-3.6,1.8h-0.2
			c-0.8,0-1.6-0.3-2.2-0.7c0.7,0.6,1.6,1,2.7,1.1l0.2,0c1.5,0,2.8-0.6,3.6-1.8C105.1,72.8,105,68.7,104,65.7"/>
		<path class="st23" d="M30.5,62.4c-1.6,0-1.8,0.8-1.9,2.8c0.2,0,0.3,0,0.5,0c0.1-1.6,0.4-2.4,1.8-2.4c2.5,0,4.8,0,6.8,0
			c1.7,0,3.3,0,4.8,0c0.1,0,0.2,0,0.3,0.1c-0.2-0.3-0.5-0.5-0.8-0.5c-1.5,0-3.1,0-4.8,0C35.2,62.3,33,62.4,30.5,62.4"/>
		<path class="st23" d="M37.3,71.1l0-0.2c0.1-0.8,0.1-1.9,0.1-2.8c0-0.6,0-1.9,0-2l-0.5,0.1c0,0.2,0,1.3,0,1.5c0,0.9,0,2-0.1,2.8
			l0,0.2l-0.1,0.1c-1.2,2.1-4.4,3.6-7.7,3.6c-1.7,0-3.2-0.4-4.4-1.1c-0.1-0.1-0.2-0.2-0.4-0.3c0.3,0.3,0.6,0.5,0.9,0.7
			c1.2,0.7,2.7,1.1,4.4,1.1c3.4,0,6.5-1.5,7.7-3.6L37.3,71.1z"/>
		<path class="st23" d="M37.6,77.6c0-0.4,0-0.8,0-1.1l-0.1-1.3L37,75.5l0,0.6c0,0.3,0,0.7,0,1.1c0,0.3,0,0.8,0,1.1
			c0.2,0,0.3,0,0.5-0.1C37.6,78,37.6,77.8,37.6,77.6"/>
		<path class="st23" d="M16.9,69.2c-0.7-4.9,0.6-9.4,3.6-12.8c3.1-3.6,7.9-5.5,13.5-5.5c1.9,0,3.9,0.2,5.9,0.7
			c0.1,0,0.2,0.1,0.3,0.1v0c-0.1-0.2-0.4-0.4-0.8-0.5c-2.1-0.4-4.1-0.7-5.9-0.7c-5.6,0-10.4,2-13.5,5.5c-3,3.4-4.2,8-3.6,12.8
			c0.3,2,1.4,4.9,3.8,6.7C18.1,73.7,17.1,71.1,16.9,69.2"/>
		<path class="st23" d="M46.3,71.3c0.7-5.1,5.6-8.6,11.8-8.6c0.7,0,1.4,0.1,2,0.1c0.1-0.1,0.1-0.2,0.1-0.3c-0.9-0.1-1.8-0.2-2.7-0.2
			c-6.2,0-11,3.5-11.8,8.6c-0.5,3.7,0.7,7,3.2,8.9C46.8,77.9,45.8,74.8,46.3,71.3"/>
		<path class="st23" d="M60.5,65c0.8,0.3,1.5,0.7,2.1,1.1c-0.7-0.6-1.6-1.1-2.6-1.5l-0.4-0.2l-0.2,0.2L60.5,65z"/>
		<path class="st23" d="M58,78.5c1.5-0.5,2.7-1.9,3.2-3.8c0.6-2.2,0.1-4.5-1.3-6.1l0,0l0,0c-0.1-0.1-0.3-0.2-0.4-0.3
			c1.4,1.6,1.8,3.8,1.3,6c-0.5,1.9-1.7,3.3-3.2,3.9c-0.8,0.3-1.6,0.4-2.3,0.4c-1.1,0-2.1-0.3-2.8-0.9c0.8,0.8,1.9,1.3,3.3,1.3
			C56.4,79,57.2,78.8,58,78.5"/>
		<path class="st23" d="M56.5,66.1c0.3,0.4,0.2,0.9,0.2,1.2h0.1c0.1,0,0.2,0,0.4,0c0,0,0.1,0,0.1,0c0-0.3,0-0.7-0.3-0.9
			C56.9,66.3,56.7,66.2,56.5,66.1"/>
		<path class="st23" d="M80.5,77.7c1.5-0.5,2.7-1.9,3.2-3.8c0.6-2.2,0.1-4.5-1.3-6.1l0,0l0,0c-0.1-0.1-0.3-0.2-0.4-0.3
			c1.4,1.6,1.8,3.8,1.2,6c-0.5,1.9-1.7,3.3-3.2,3.8c-0.8,0.3-1.6,0.4-2.3,0.4c-1.1,0-2.1-0.3-2.8-0.9c0.8,0.8,1.9,1.3,3.3,1.3
			C78.9,78.2,79.7,78,80.5,77.7"/>
		<path class="st23" d="M82.9,64.2c0.8,0.3,1.5,0.7,2.1,1.1c-0.7-0.6-1.6-1.1-2.6-1.5L82,63.7l-0.2,0.2L82.9,64.2z"/>
		<path class="st23" d="M68.8,70.5c0.7-5.1,5.6-8.6,11.8-8.6c0.7,0,1.3,0.1,2,0.1c0.1-0.1,0.1-0.2,0.1-0.3c-0.9-0.1-1.8-0.2-2.7-0.2
			c-6.2,0-11,3.5-11.8,8.6c-0.5,3.7,0.7,7,3.2,8.9C69.3,77.1,68.3,74,68.8,70.5"/>
		<path class="st23" d="M79,65.3c0.2,0.4,0.2,0.8,0.2,1.2c0,0,0.1,0,0.1,0c0.1,0,0.2,0,0.3,0c0.1,0,0.1,0,0.1,0
			c0-0.3-0.1-0.7-0.3-0.9C79.3,65.5,79.2,65.4,79,65.3"/>
		<g>
			<path class="st0" d="M16.7,103.6c6.5,7.1,20.9,17.5,47.6,18.9c29.5,1.5,43.9-17.3,47.9-23.8c0.5-0.8,0.8-0.7,0.5,0.1
				c-2.8,7.5-14.7,31.4-49.4,29.6C35.5,127.1,22,113.2,16,104.5C14.3,102.2,15.7,102.5,16.7,103.6"/>
			<path class="st0" d="M106.7,93.4c1.3-0.8,5.4-3.1,8.9-1.4c3.6,1.7,3.8,5.8,3.6,7.9c-0.1,0.8-0.2,0.9-0.4,0.2
				c-0.4-1.8-1.4-5.3-4.1-5.8c0.1,0,4.4,4.2,2.4,9.3c-0.1,0.4-0.5,0.8-0.5,0.1c0-2.8-0.9-10.6-9.8-10.2
				C106.7,93.6,106.5,93.5,106.7,93.4"/>
			<path class="st24" d="M18.4,106.3c-0.3-0.2-0.5-0.5-0.7-0.7c2.3,3.1,5.3,6.3,9.1,9.4C23.4,112.1,20.6,109.1,18.4,106.3"/>
			<path class="st24" d="M64.8,123.5c1.1,0.1,2.2,0.1,3.3,0.1c20.4,0,33.2-9.6,40.2-17.5c0.7-1.1,1.3-2.1,1.8-3.1
				c-6.3,8.1-19.6,20.2-42.4,20.2c-1.1,0-2.2,0-3.3-0.1c-21.7-1.1-35.1-8.1-42.8-14.2C29.1,115.1,42.6,122.4,64.8,123.5"/>
			<path class="st24" d="M113.4,92.4c0.9,0,1.7,0.2,2.5,0.5c0.3,0.1,0.6,0.3,0.8,0.5c-0.4-0.3-0.8-0.6-1.3-0.9
				c-0.7-0.3-1.6-0.5-2.5-0.5c-1.4,0-2.7,0.4-3.8,0.9c0.4,0,0.7,0.1,1.1,0.2C111.1,92.7,112.2,92.4,113.4,92.4"/>
			<path class="st24" d="M117.1,94.6c0.5,0.4,0.9,0.9,1.2,1.5c-0.1-0.2-0.1-0.4-0.2-0.6C117.8,95.2,117.4,94.9,117.1,94.6"/>
			<path class="st24" d="M114,94.9c1.7,1.5,2.6,3.5,3,5.4c-0.1-1.2-0.4-2.2-0.9-3C115.6,96.4,114.9,95.6,114,94.9"/>
		</g>
		<path class="st4" d="M92.8,24.2h0.5h0.2c0.2,0,0.3,0,0.4,0c0.1,0,0.1-0.1,0.2-0.1c0-0.1,0.1-0.1,0.1-0.2c0-0.1,0-0.2-0.1-0.2
			c-0.1-0.1-0.1-0.1-0.2-0.1c-0.1,0-0.2,0-0.3,0h-0.1h-0.5V24.2z M92.2,26h0.6v-1.3h0.1c0.1,0,0.2,0,0.3,0c0.1,0,0.1,0.1,0.2,0.1h0
			c0.1,0.1,0.2,0.2,0.3,0.5l0.4,0.7h0.7l-0.4-0.6c-0.2-0.2-0.3-0.4-0.4-0.5c-0.1-0.1-0.2-0.2-0.3-0.3c0.3,0,0.5-0.1,0.6-0.3
			c0.1-0.1,0.2-0.3,0.2-0.6c0-0.2,0-0.3-0.1-0.5c-0.1-0.1-0.2-0.2-0.4-0.3c-0.1-0.1-0.4-0.1-0.7-0.1h-0.1h-1.2V26z M90.9,24.4
			c0,0.7,0.3,1.3,0.7,1.8c0.5,0.4,1.1,0.7,1.7,0.7c1.4,0,2.5-1.1,2.5-2.5c0-0.7-0.3-1.3-0.7-1.7c-0.5-0.4-1.1-0.7-1.7-0.7
			C92,22,90.9,23.1,90.9,24.4 M90.4,24.4c0,0.8,0.3,1.6,0.9,2.1c0.6,0.5,1.3,0.9,2.1,0.9c1.6,0,3-1.3,3-3c0-0.8-0.3-1.6-0.9-2.1
			c-0.5-0.5-1.3-0.9-2.1-0.9C91.7,21.5,90.4,22.8,90.4,24.4"/>
		<path class="st3" d="M49.3,28.6c1.7-0.4,3.4-0.7,5.1-1c0.8-0.1,1.6-0.2,2.5-0.4c0.7-0.1,1.4-0.2,2.1-0.2c0.8-0.1,1.5-0.1,2.3-0.2
			l1.6-0.1l1.6,0h1.7l1.6,0l1.6,0.1c0.8,0.1,1.6,0.1,2.4,0.2c0.8,0.1,1.6,0.1,2.3,0.2c2.8,0.3,5.6,0.6,8.4,0.9
			c0.7,0.1,1.5,0.1,2.2,0.2l1.5,0.1c0.7,0,1.5,0.1,2.2,0.1c0.7,0,1.4,0,2.1,0c1.1,0,2.2-0.1,3.3-0.1c0.7,0,1.4-0.1,2-0.2
			c0.1,0,0.3,0,0.4-0.1v25.9c-0.5,0-1,0.1-1.4,0.1c-1.6,0.1-3.1,0.1-4.6,0.1h-1.1c-0.8,0-1.5,0-2.3-0.1c-0.8,0-1.5-0.1-2.2-0.2
			c-0.8-0.1-1.5-0.1-2.3-0.2c-2.8-0.3-5.6-0.6-8.4-0.9c-1-0.1-2.1-0.2-3.1-0.3l-1.6-0.1c-0.8,0-1.6-0.1-2.4-0.1l-1.7,0l-1.6,0
			L62,52.5l-1.5,0.1L59,52.8c-0.7,0.1-1.4,0.1-2.1,0.2c-0.6,0.1-1.3,0.2-1.9,0.3c-0.7,0.1-1.4,0.2-2.2,0.4c-0.4,0.1-0.9,0.2-1.3,0.3
			c-0.8,0.2-1.5,0.3-2.3,0.6l-0.4,0.1V28.7C49,28.7,49.2,28.6,49.3,28.6"/>
		<path class="st0" d="M67.7,27.4l1.6,0.1c0.8,0.1,1.6,0.1,2.4,0.2c0.8,0.1,1.6,0.1,2.3,0.2c2.8,0.3,5.6,0.7,8.4,0.9
			c0.8,0.1,1.5,0.1,2.3,0.2l1.5,0.1c0.8,0,1.5,0.1,2.3,0.1c0.6,0,1.2,0,1.8,0c1.8,0,3.7-0.1,5.5-0.3h0v24.6
			c-1.7,0.1-3.4,0.2-5.2,0.2c-0.7,0-1.4,0-2.1,0l-1.5-0.1c-0.7,0-1.5-0.1-2.2-0.2c-0.7-0.1-1.5-0.1-2.2-0.2
			c-2.8-0.3-5.6-0.6-8.4-0.9c-0.8-0.1-1.6-0.2-2.3-0.2c-0.8-0.1-1.6-0.1-2.4-0.2l-1.6-0.1l-1.6,0h-1.7l-1.6,0L61.2,52l-1.5,0.1
			c-0.7,0.1-1.4,0.1-2.2,0.2l-1.3,0.2c-2.3,0.3-4.5,0.7-6.7,1.3V29.2c1.5-0.4,2.9-0.7,4.4-0.9c0.6-0.1,1.2-0.2,1.7-0.3
			c0.9-0.1,1.8-0.2,2.6-0.3c0.7-0.1,1.5-0.1,2.2-0.2l1.5-0.1l1.6-0.1l1.6,0l1.7,0L67.7,27.4z"/>
		<path class="st7" d="M77.5,48.1h0.3l-0.1,0.3h-0.2h-0.2L77.5,48.1L77.5,48.1z M57.8,48.1H58l-0.1,0.4h0h0h0c-0.1,0-0.3,0-0.4,0H57
			l-0.2,0.6h0.4c0.1,0,0.1,0,0.2,0h0.2l-0.1,0.4h-0.8l-0.2,0.7h0.5c0.1,0,0.1,0,0.4,0l-0.1,0.4h-1.3c0.2-0.5,0.7-1.9,0.8-2.4H57.8z
			 M63.6,48.1h0.1c0,0.1-0.1,0.2-0.1,0.3v0c-0.2,0.7-0.5,1.4-0.7,2h-0.4c0.1-0.3,0.2-0.6,0.4-1.1H62c-0.1,0.4-0.2,0.7-0.4,1.1h-0.4
			c0-0.1,0.1-0.1,0.1-0.2c0.2-0.7,0.5-1.3,0.8-2.2h0.4c-0.1,0.2-0.2,0.5-0.3,0.9H63l0,0c0-0.1,0.2-0.6,0.3-0.9H63.6z M67.5,48.1h0.1
			l0,0c0,0.1-0.1,0.2-0.1,0.3c-0.3,0.7-0.5,1.4-0.7,2h-0.3h-0.1c0,0,0-0.1,0-0.1c0,0,0,0,0,0c0.3-0.7,0.5-1.3,0.8-2.2H67.5z
			 M75.1,48.1h0.3l-0.1,0.4h0c-0.1,0-0.1,0-0.2,0c-0.1,0-0.2,0-0.4,0c-0.2,0.6-0.4,1.2-0.7,2h-0.4c0.2-0.6,0.5-1.3,0.7-2
			c-0.3,0-0.4,0-0.5,0h-0.1l0.1-0.4H75.1z M80.1,48.1h0.2c0,0.1-0.1,0.2-0.1,0.3c0,0.1-0.1,0.2-0.1,0.4c-0.2,0.6-0.4,1.2-0.6,1.7
			h-0.3h0c0,0,0-0.1,0-0.1c0.3-0.7,0.5-1.5,0.8-2.2H80.1z M82.9,48.1h0.5c0.1,0,0.2,0,0.3,0.1c0.1,0.1,0.1,0.2,0,0.5c0,0,0,0,0,0.1
			c-0.1,0.3-0.3,0.5-0.5,0.5v0c0.2,0.1,0.3,0.2,0.2,0.6c-0.1,0.3-0.2,0.4-0.4,0.5c-0.1,0.1-0.3,0.1-0.5,0.1h-0.8
			c0.1-0.4,0.5-1.4,0.8-2.4H82.9z M82.5,49.1h0.3c0,0,0.1,0,0.1,0c0.2,0,0.3-0.2,0.4-0.3c0.1-0.3-0.1-0.3-0.2-0.3h-0.1h-0.2
			L82.5,49.1z M69.9,48.7c0.2,0,0.3,0.2,0.2,0.6c0,0.1-0.1,0.2-0.1,0.4c0,0.1-0.1,0.1-0.1,0.2c0,0,0,0,0,0c-0.1,0.2-0.1,0.4-0.2,0.6
			h-0.4c0.1-0.3,0.3-0.7,0.4-1c0.1-0.2,0-0.4-0.2-0.4c-0.2,0-0.4,0.2-0.5,0.5c-0.1,0.2-0.2,0.6-0.3,0.8c0,0,0,0.1,0,0.1h-0.2h-0.2
			l0,0c0.1-0.1,0.1-0.3,0.2-0.4c0.2-0.7,0.5-1.3,0.7-1.9h0.4c0,0.1-0.1,0.1-0.1,0.2c-0.1,0.2-0.2,0.5-0.2,0.7l0,0
			c0.2-0.3,0.4-0.3,0.6-0.3C69.8,48.7,69.9,48.7,69.9,48.7 M65,48.9c0.1,0.1,0.1,0.3,0,0.5l0,0c0,0,0,0.1,0,0.1c0,0,0,0.1,0,0.1
			h-0.5h-0.4l0,0.1c-0.1,0.3,0,0.5,0.2,0.5c0.1,0,0.1,0,0.2,0c0.1,0,0.2-0.1,0.3-0.1l-0.2,0.4c0,0-0.1,0-0.1,0c-0.1,0-0.2,0-0.3,0
			c-0.2,0-0.3,0-0.4-0.1c-0.2-0.2-0.1-0.6-0.1-0.7c0,0,0-0.1,0.1-0.2c0.1-0.3,0.3-0.7,0.7-0.8c0.1,0,0.1,0,0.2,0
			C64.8,48.7,64.9,48.8,65,48.9 M88.7,48.8c0.1,0.1,0.1,0.3,0,0.6v0l0,0c0,0.1,0,0.1-0.1,0.2h-0.5h-0.4l0,0.1
			c-0.1,0.3,0,0.5,0.2,0.5c0.1,0,0.1,0,0.2,0c0.1,0,0.2-0.1,0.3-0.1l-0.2,0.4c-0.1,0-0.1,0-0.1,0c-0.1,0-0.2,0-0.3,0
			c-0.2,0-0.4-0.1-0.4-0.2c-0.2-0.2-0.1-0.5,0-0.7l0,0l0,0c0.1-0.3,0.3-0.8,0.8-0.9c0.1,0,0.2,0,0.2,0
			C88.5,48.7,88.6,48.7,88.7,48.8 M85.1,49.4c0,0.1-0.1,0.1-0.1,0.2h-0.5H84l0,0.1c-0.1,0.3,0,0.5,0.2,0.5c0.1,0,0.1,0,0.2,0
			c0.1,0,0.2-0.1,0.3-0.1l-0.2,0.4c0,0-0.1,0-0.1,0c-0.1,0-0.2,0-0.3,0c-0.3,0-0.4-0.1-0.5-0.2c-0.1-0.2-0.1-0.5,0-0.7
			c0.1-0.3,0.3-0.8,0.8-1c0.1,0,0.2,0,0.2,0C85,48.7,85.2,48.9,85.1,49.4 M60.2,48.7h0.3l-0.1,0.3h-0.3c0,0.1,0,0.1-0.1,0.2
			c-0.1,0.2-0.2,0.5-0.2,0.6c0,0.1-0.1,0.3,0.1,0.3c0.1,0,0.2,0,0.2,0h0l-0.2,0.4c-0.1,0-0.2,0.1-0.3,0.1c-0.2,0-0.3-0.1-0.2-0.5
			c0-0.1,0.2-0.5,0.3-0.8c0-0.1,0.1-0.2,0.1-0.2h-0.2l0.1-0.3h0.2l0.1-0.3l0.4-0.1L60.2,48.7z M68.3,48.7h0.2h0.2l-0.1,0.3h0h-0.3
			c0,0.1,0,0.1-0.1,0.2c-0.1,0.2-0.2,0.5-0.2,0.6c0,0.1-0.1,0.3,0.1,0.3c0.1,0,0.2,0,0.2,0h0L68,50.5c-0.1,0-0.2,0.1-0.3,0.1
			c-0.1,0-0.1,0-0.1,0c-0.1,0-0.2-0.2-0.1-0.4c0-0.1,0-0.1,0.1-0.3l0,0c0.1-0.3,0.2-0.7,0.3-0.8h-0.2l0.1-0.3h0.2l0.1-0.3l0.4-0.1
			L68.3,48.7z M86,48.7h0.2h0.1L86.3,49l0,0.1h-0.3c-0.1,0.2-0.2,0.7-0.3,0.8c-0.1,0.1-0.1,0.3,0.1,0.3c0.1,0,0.1,0,0.2,0h0
			l-0.2,0.4c-0.1,0-0.2,0.1-0.3,0.1c-0.3,0-0.3-0.1-0.2-0.5c0-0.2,0.3-0.9,0.4-1h-0.2l0.1-0.3h0.2l0.1-0.3l0.4-0.1L86,48.7z
			 M87.1,48.7h0.2h0.1L87.3,49l0,0.1H87c0,0.1,0,0.1-0.1,0.2c-0.1,0.2-0.2,0.5-0.2,0.6c0,0.1-0.1,0.3,0.1,0.3c0.1,0,0.1,0,0.2,0l0,0
			l-0.2,0.4c-0.1,0-0.2,0.1-0.3,0.1c-0.1,0-0.2,0-0.2,0c-0.1-0.1-0.1-0.2,0-0.4c0,0,0,0,0,0c0,0,0,0,0-0.1c0.1-0.3,0.3-0.8,0.3-0.9
			h-0.2l0.1-0.3h0.2l0.1-0.3l0.4-0.1L87.1,48.7z M77.5,48.7h0.1L77.5,49c-0.2,0.4-0.3,0.9-0.5,1.5h-0.3h0c0,0,0-0.1,0-0.1
			c0.2-0.5,0.4-1.1,0.6-1.6H77.5z M66.5,48.8c0.1,0.1,0.1,0.2,0,0.4l0,0c0,0,0,0,0,0.1c0,0.1-0.1,0.2-0.1,0.4
			c-0.1,0.3-0.2,0.6-0.3,0.9h-0.4c0.1-0.2,0.1-0.3,0.3-0.9c0,0,0,0,0,0c-0.1,0.1-0.2,0.1-0.3,0.1c-0.2,0.1-0.4,0.1-0.4,0.3
			c0,0.2,0,0.2,0.2,0.2c0.1,0,0.1,0,0.2-0.1l-0.2,0.3c-0.1,0-0.2,0-0.3,0c-0.2,0-0.2,0-0.3-0.1c-0.1-0.1,0-0.3,0-0.4l0,0
			c0.1-0.4,0.5-0.5,0.8-0.6c0.2-0.1,0.4-0.1,0.4-0.3C66.2,49,66.1,49,66,49c-0.2,0-0.4,0.1-0.6,0.2l0.1-0.3c0.2-0.1,0.4-0.1,0.6-0.1
			C66.3,48.7,66.4,48.7,66.5,48.8 M76.6,48.8c0.1,0.1,0.1,0.2,0,0.4c0,0,0,0,0,0c0,0.1-0.1,0.2-0.1,0.4c-0.1,0.2-0.2,0.5-0.3,0.9
			h-0.4c0.2-0.3,0.3-0.7,0.4-1c0.1-0.2,0-0.4-0.2-0.4c-0.2,0-0.4,0.2-0.5,0.5c-0.1,0.2-0.3,0.7-0.3,0.9c0,0,0,0.1,0,0.1h-0.1h-0.3
			c0.1-0.3,0.2-0.5,0.3-0.8c0.2-0.5,0.4-1,0.5-1.6H76h0c-0.1,0.3-0.2,0.6-0.3,0.9v0c0.2-0.3,0.4-0.3,0.6-0.3
			C76.4,48.7,76.5,48.7,76.6,48.8 M79.2,48.8c0.1,0.1,0.1,0.2,0,0.4c0,0,0,0,0,0c0,0.1-0.1,0.2-0.1,0.4c-0.1,0.2-0.2,0.5-0.3,0.9
			h-0.4c0.2-0.3,0.3-0.7,0.4-1c0.1-0.2,0-0.4-0.2-0.4c-0.2,0-0.4,0.2-0.5,0.5c-0.1,0.2-0.2,0.6-0.3,0.8c0,0,0,0.1,0,0.1h-0.3h-0.1
			c0-0.1,0.1-0.1,0.1-0.2c0,0,0,0,0-0.1c0.2-0.5,0.3-0.9,0.5-1.5h0.4L78.2,49c0.2-0.3,0.4-0.3,0.6-0.3C79,48.7,79.1,48.7,79.2,48.8
			 M72,48.7l-0.4,0.7l-1,1.5c-0.1,0.2-0.3,0.4-0.7,0.4c-0.1,0-0.2,0-0.3,0l0.1-0.4c0,0,0.1,0.1,0.2,0.1c0,0,0,0,0.1,0
			c0.2,0,0.3-0.3,0.5-0.5l0.1-1.8h0.4c0,0.2,0,0.4-0.1,0.6c0,0.3,0,0.5-0.1,0.8h0c0.1-0.2,0.3-0.5,0.4-0.7c0.1-0.2,0.2-0.4,0.3-0.5
			c0,0,0-0.1,0.1-0.1H72z M89.6,48.7L89.5,49c0.1-0.2,0.3-0.3,0.4-0.3c0,0,0.1,0,0.1,0L90,49.1c0,0-0.1,0-0.1,0
			c-0.2,0-0.4,0.2-0.5,0.4c-0.1,0.2-0.2,0.6-0.3,0.8L89,50.5h-0.3h-0.1c0,0,0-0.1,0-0.1c0,0,0-0.1,0-0.1c0.2-0.4,0.3-0.9,0.5-1.6
			H89.6z M64.3,49c-0.1,0.1-0.3,0.2-0.3,0.4h0.3h0.3c0.1-0.3,0.1-0.4-0.1-0.4C64.4,49,64.4,49,64.3,49 M84.4,49
			c-0.1,0.1-0.3,0.2-0.3,0.4h0.3h0.3c0.1-0.3,0.1-0.4-0.1-0.4C84.5,49,84.5,49,84.4,49 M88.1,49c-0.1,0.1-0.2,0.2-0.3,0.4h0.3h0.3
			c0.1-0.3,0.1-0.4-0.1-0.4C88.2,49,88.1,49,88.1,49 M59.2,49.2c0,0.1-0.1,0.2-0.1,0.4c-0.1,0.3-0.2,0.6-0.3,0.9h-0.4
			c0.1-0.2,0.1-0.3,0.3-0.9v0c-0.1,0.1-0.2,0.1-0.3,0.1c-0.2,0.1-0.4,0.1-0.4,0.3c-0.1,0.2,0.1,0.2,0.2,0.2c0.1,0,0.2,0,0.2-0.1
			l-0.2,0.3c-0.1,0-0.2,0-0.2,0c-0.1,0-0.1,0-0.2,0c-0.3-0.1-0.2-0.4-0.2-0.5c0-0.1,0.1-0.2,0.2-0.3c0.2-0.2,0.4-0.2,0.6-0.3
			c0.2-0.1,0.4-0.1,0.4-0.3c0.1-0.2-0.1-0.2-0.2-0.2c-0.2,0-0.4,0.1-0.6,0.2l0.1-0.3c0.2-0.1,0.4-0.1,0.6-0.1
			C59.1,48.7,59.4,48.8,59.2,49.2 M81,48.7l-0.7,0.8c0,0.2,0.1,0.5,0.1,0.7c0,0.1,0,0.2,0.1,0.3h-0.4H80c0-0.2-0.1-0.4-0.1-0.6
			c0-0.1,0-0.3-0.1-0.4c0,0,0.1-0.1,0.1-0.1c0,0,0.1-0.1,0.1-0.1c0.2-0.2,0.3-0.3,0.5-0.5H81z M82.2,50.2h0.3c0.2,0,0.3-0.1,0.4-0.2
			c0,0,0-0.1,0.1-0.1c0.1-0.2,0-0.3-0.1-0.3c0,0-0.1,0-0.2,0h-0.3L82.2,50.2z M72,50.2l-0.4,0.6l-0.2,0.2h-0.3l0.4-0.7l0,0H72z"/>
		<path class="st3" d="M72.6,47.5L92,44.1c0.7-0.1,1.3-0.8,1.3-1.6v-7.9c0-0.4-0.2-0.9-0.5-1.1C91,31.6,84.9,30,72.6,30
			c-12.3,0-18.4,1.6-20.2,3.4c-0.3,0.3-0.5,0.7-0.5,1.1l0,7.9c0,0.8,0.6,1.5,1.3,1.6L72.6,47.5z"/>
		<path class="st8" d="M70.7,42c3.4-0.9,7.5,0.1,9.5,1C78.3,43,76,43.2,74,43.7c-2.1,0.5-3.8,1.3-5.4,2.6C67.2,45.2,66.9,43,70.7,42
			"/>
		<path class="st4" d="M56.4,34h0.1c1.2,0,1.7,0.7,1.8,1.5c0.1,0.8-0.2,1.6-0.9,1.7c1.1,0.2,1.5,1.1,1.4,2c-0.1,0.9-0.7,1.7-1.8,1.7
			c-0.1,0-0.4,0-0.8,0h-1.7c-0.4,0-0.8-0.4-0.8-1v-5.4c0-0.1,0-0.4-0.1-0.5c0,0,0-0.1,0-0.1c0,0,0.1,0,0.2,0H56.4z M88.7,35h0.5h0.6
			c0.1,0,0.4,0.1,0.6,0.4c0.1,0.3,1.1,3.4,1.6,4.8c0.1,0.4,0.2,0.6,0.2,0.6c0.1,0.2,0,0.2-0.1,0.2h-1.2h0h0c-0.1,0-0.2,0-0.3-0.4
			c0-0.1-0.2-0.6-0.3-1c-0.1-0.3-0.2-0.6-0.2-0.6h-0.7h-0.6c0,0.1-0.4,1.4-0.4,1.5l0,0c0,0.1-0.1,0.5-0.6,0.5h-0.4
			c-0.1,0-0.2,0-0.1-0.2c0-0.2,0.7-2.4,1.1-3.9c0.2-0.8,0.4-1.3,0.4-1.4c0-0.1,0.1-0.3-0.1-0.5c0,0,0-0.1,0-0.1
			C88.5,35,88.6,35,88.7,35L88.7,35z M71.5,35H72c0.1,0,0.4,0.1,0.6,0.4c0.1,0.3,1,3.2,1.5,4.6c0.2,0.5,0.3,0.8,0.3,0.8
			c0,0.1,0,0.2-0.1,0.2h-1.2h0h0c-0.1,0-0.2,0-0.3-0.4c0-0.1-0.2-0.5-0.3-0.9c-0.1-0.3-0.2-0.7-0.2-0.7h-0.7h-0.6
			c0,0.1-0.3,1.2-0.4,1.4c0,0,0,0,0,0l0,0c0,0.1-0.1,0.5-0.5,0.5h-0.2h-0.2c-0.1,0-0.2,0-0.1-0.2c0-0.1,0.2-0.6,0.4-1.2
			c0,0,0-0.1,0-0.1c0.4-1.5,1.1-3.9,1.1-3.9c0-0.1,0.1-0.3-0.1-0.5c0,0,0-0.1,0-0.1c0,0,0.1,0,0.1,0H71.5z M76.1,35.4
			c0.3,0.5,1.6,2.1,1.9,2.5c0,0,0,0.1,0.1,0.1v-2.4c0-0.1,0-0.4-0.1-0.5c0-0.1,0-0.1,0-0.1c0,0,0.1,0,0.2,0h0.6
			c0.3,0,0.5,0.3,0.5,0.6V41h-0.4c-0.2,0-0.5-0.1-0.7-0.4c-0.1-0.2-0.7-1-1.3-1.8c-0.5-0.7-1-1.4-1-1.4v3.2c0,0.2-0.1,0.3-0.4,0.3
			h-0.5c-0.1,0-0.2-0.1-0.2-0.4v-5c0-0.1,0-0.4-0.1-0.5c0-0.1,0-0.1,0-0.1c0,0,0.1,0,0.2,0h0.7h0C75.5,35,75.9,35.1,76.1,35.4
			 M61.5,35h0.3c1.2,0,1.7,0.7,1.7,1.5c0,0.8-0.4,1.6-1.1,1.8c0.1,0.3,1,2.1,1.6,2.6c0.1,0.1,0.1,0.1,0.1,0.1c0,0-0.1,0-0.1,0
			c-0.1,0-0.2,0-0.3,0c-0.3,0-0.8,0-1.2-0.2c-0.4-0.2-0.7-0.7-1-1.2c-0.2-0.3-0.3-0.7-0.4-0.9c-0.1-0.2-0.1-0.3-0.2-0.4v2.2
			c0,0.3-0.2,0.4-0.4,0.4h-0.9c-0.1,0-0.2-0.1-0.2-0.4v-5c0-0.1,0-0.4-0.1-0.5c0-0.1,0-0.1,0-0.1c0,0,0.1,0,0.2,0H61.5z M69.4,35
			c0.1,0,0.3,0,0.4,0.1c0.3,0.2,0.4,0.6,0.4,0.8v0c0,0.2,0,0.3-0.1,0.3h-0.3h-0.9c-0.1,0-0.2,0.1-0.2,0.2v4.2c0,0.3-0.2,0.4-0.4,0.4
			h-0.4h-0.4c-0.1,0-0.2-0.1-0.2-0.4v-4.3c0-0.2-0.1-0.2-0.3-0.2h-0.8c-0.1,0-0.1,0-0.1-0.1v-0.9c0-0.1,0-0.1,0.1-0.1H69.4z
			 M55.6,35.1c-0.1,0-0.1,0-0.1,0.1v1.4v0c0,0.1,0,0.2,0.5,0.2c0.2,0,0.3,0,0.5-0.1c0.3-0.1,0.4-0.3,0.4-0.8c0-0.4-0.2-0.7-0.4-0.8
			c-0.1,0-0.2-0.1-0.3-0.1l0,0h-0.2C55.8,35.1,55.7,35.1,55.6,35.1 M60.9,36.1v1.5h0.3c0.1,0,0.2,0,0.3,0c0.4-0.1,0.6-0.4,0.6-0.8
			c0-0.3-0.1-0.6-0.6-0.7c-0.1,0-0.1,0-0.2,0C61.2,36.1,61.1,36.1,60.9,36.1 M71.5,36.9C71.5,36.9,71.5,36.9,71.5,36.9
			c-0.1,0.3-0.1,0.5-0.2,0.7c-0.1,0.3-0.2,0.5-0.2,0.8l0,0h0l0,0c0.1-0.1,0.2-0.2,0.4-0.3c0.1,0,0.2-0.1,0.4-0.1h0
			C71.8,37.7,71.5,36.8,71.5,36.9C71.5,36.8,71.5,36.9,71.5,36.9 M89.2,36.9c0,0.2-0.1,0.4-0.2,0.6c-0.1,0.3-0.2,0.6-0.2,0.9
			c0,0,0,0,0,0l0,0c0.1-0.1,0.2-0.2,0.4-0.3c0.1,0,0.2-0.1,0.4-0.1h0c-0.1-0.3-0.4-1.2-0.4-1.2C89.2,36.9,89.2,36.9,89.2,36.9
			 M55.5,37.9v1.6c0,0.1,0,0.4,0.5,0.4h0.1c0,0,0.1,0,0.1,0c0.1,0,0.1,0,0.2,0c0.7,0,1-0.4,1-1c0-0.6-0.4-1-1-1h0h-0.8
			C55.5,37.8,55.5,37.8,55.5,37.9 M80.7,35c0.2,0,0.6,0.1,0.8,0.4c0.2,0.2,0.6,0.8,1.1,1.4c0.4,0.6,0.8,1.1,0.9,1.2v-2.3
			c0-0.1,0-0.1,0-0.1c0-0.1,0-0.4-0.1-0.5c0-0.1,0-0.1,0-0.1c0,0,0.1,0,0.1,0h0.6c0.3,0,0.5,0.3,0.5,0.6l0,5.5h-0.4
			c-0.2,0-0.5-0.1-0.7-0.4c-0.1-0.2-0.8-1-1.3-1.8c-0.5-0.7-1-1.4-1-1.4v3.2c0,0.2-0.1,0.3-0.3,0.3h-0.5C80,41,80,41,80,40.7v-5
			c0-0.1,0-0.4-0.1-0.5c0-0.1,0-0.1,0-0.1c0,0,0.1,0,0.1,0H80.7z M86.1,35c0.5,0,0.7,0.4,0.7,0.9v4.8c0,0.3-0.2,0.4-0.4,0.4h-0.9
			c-0.1,0-0.2-0.1-0.2-0.4v-5c0-0.1,0-0.4-0.1-0.5c0-0.1,0-0.1,0-0.1c0,0,0.1,0,0.2,0H86.1z M65,35c0.5,0,0.7,0.4,0.7,0.9v4.8
			c0,0.3-0.2,0.4-0.4,0.4h-0.9c-0.1,0-0.2-0.1-0.2-0.4v-5c0-0.1,0-0.4-0.1-0.5c0-0.1,0-0.1,0-0.1c0,0,0.1,0,0.2,0H65z"/>
		<polygon class="st0" points="110.4,43.5 108.6,43.5 108.6,42.9 113,42.9 113,43.5 111.2,43.5 111.2,48.8 110.4,48.8 		"/>
		<path class="st0" d="M118.9,46.2c0-0.8-0.1-1.8-0.1-2.6h0c-0.2,0.7-0.5,1.4-0.8,2.3l-1.1,2.9h-0.6l-1-2.9
			c-0.3-0.8-0.5-1.6-0.7-2.3h0c0,0.7-0.1,1.8-0.1,2.6l-0.2,2.6h-0.7l0.4-6h1l1,2.9c0.2,0.7,0.5,1.4,0.6,2h0c0.1-0.6,0.4-1.3,0.6-2
			l1.1-2.9h1l0.4,6H119L118.9,46.2z"/>
	</g>
</g>
</svg>
